<?xml version="1.0" encoding="UTF-8" standalone="no"?>
<svg
   xmlns:dc="http://purl.org/dc/elements/1.1/"
   xmlns:cc="http://creativecommons.org/ns#"
   xmlns:rdf="http://www.w3.org/1999/02/22-rdf-syntax-ns#"
   xmlns:svg="http://www.w3.org/2000/svg"
   xmlns="http://www.w3.org/2000/svg"
   viewBox="0 0 201.17332 196.41333"
   height="196.41333"
   width="201.17332"
   xml:space="preserve"
   id="svg2"
   version="1.1"><metadata
     id="metadata8"><rdf:RDF><cc:Work
         rdf:about=""><dc:format>image/svg+xml</dc:format><dc:type
           rdf:resource="http://purl.org/dc/dcmitype/StillImage" /></cc:Work></rdf:RDF></metadata><defs
     id="defs6" /><g
     transform="matrix(1.3333333,0,0,-1.3333333,0,196.41333)"
     id="g10"><g
       transform="scale(0.1)"
       id="g12"><path
         id="path14"
         style="fill:#706d6e;fill-opacity:1;fill-rule:evenodd;stroke:none"
         d="m 1417.9,409.629 v 354.484 c 0,391.557 -317.42,708.967 -708.97,708.967 C 317.395,1473.08 0,1155.66 0,764.113 c 0,-0.484 141.777,-0.484 141.777,0 0,313.247 253.926,567.197 567.153,567.197 313.25,0 567.18,-253.95 567.18,-567.197 V 409.629 h 141.79" /><path
         id="path16"
         style="fill:#f25c19;fill-opacity:1;fill-rule:nonzero;stroke:none"
         d="m 709.477,584.145 -120.825,120.832 0.032,183.074 120.793,-120.789 275.031,275.028 c -70.371,70.38 -167.61,113.91 -275.059,113.91 -214.801,0 -388.929,-174.145 -388.929,-388.989 0,-214.844 174.128,-389.012 388.929,-389.012 214.883,0 388.981,174.168 388.981,389.012 0,60.129 -13.65,117.059 -38,167.883 L 709.477,584.145" /><path
         id="path18"
         style="fill:#706d6e;fill-opacity:1;fill-rule:nonzero;stroke:none"
         d="M 946.266,60.1406 C 910.875,71 903.707,101.578 905.902,135.371 h 51.125 c 0,-23.301 0.996,-42.9101 29.161,-42.9101 17.272,0 25.722,11.1171 25.722,27.7111 0,43.949 -102.988,46.707 -102.988,119.328 0,38.191 18.269,68.641 80.664,68.641 49.774,0 74.524,-22.313 71.134,-73.352 h -49.79 c 0,18.262 -3.05,36.82 -23.739,36.82 -16.589,0 -26.425,-9.121 -26.425,-26 0,-46.347 103.004,-42.281 103.004,-119.031 0,-42.2694 -20.77,-59.6171 -46.18,-66.4374 h -71.324 v 0" /><path
         id="path20"
         style="fill:#706d6e;fill-opacity:1;fill-rule:nonzero;stroke:none"
         d="m 1188.26,229.039 c 0.36,22.66 -3.37,42.57 -30.5,42.57 -31.85,0 -31.85,-42.937 -31.85,-90.257 0,-76.352 7.48,-89.9028 36.59,-89.9028 8.49,0 17.65,2.0391 25.42,4.7422 v 54.0706 h -27.77 v 37.539 h 78.95 V 64.0703 c -5.43,-1.082 -14.02,-2.539 -23.7,-3.9297 h -87.53 c -47.41,11.7813 -53.79,49.3474 -53.79,123.9294 0,61.539 3.08,124.071 86.74,124.071 50.14,0 81.29,-28.063 78.28,-79.102 h -50.84 v 0" /><path
         id="path22"
         style="fill:#706d6e;fill-opacity:1;fill-rule:nonzero;stroke:none"
         d="m 1335.74,308.141 c 44.7,0.089 69.12,-17.379 72.51,-56.653 v -16.699 h -49.81 c 0.03,17.77 -4.43,36.82 -25.09,36.82 -16.62,0 -26.45,-9.121 -26.45,-26 0,-42.828 88.03,-42.64 101.35,-102.918 v -35.382 c -5.42,-28.5395 -23.33,-41.4574 -44.48,-47.1684 h -71.32 C 1257.02,71 1249.89,101.578 1252.04,135.371 h 51.14 c 0,-23.301 1.02,-42.9101 29.19,-42.9101 17.22,0 25.71,11.1171 25.71,27.7111 0,43.949 -103.01,46.707 -103.01,119.328 0,38.191 18.3,68.488 80.67,68.641 v 0" /><path
         id="path24"
         style="fill:#f25c19;fill-opacity:1;fill-rule:nonzero;stroke:none"
         d="M 752.113,60.2383 H 1508.76 V 50.4492 H 752.113 v 9.7891 0" /><path
         id="path26"
         style="fill:#f25c19;fill-opacity:1;fill-rule:nonzero;stroke:none"
         d="m 1407.89,353.07 h 9.79 V 0 h -9.79 v 353.07 0" /><path
         id="path28"
         style="fill:#f25c19;fill-opacity:1;fill-rule:nonzero;stroke:none"
         d="M 9.27734,707.25 8.28125,721.012 116.25,728.832 117.246,715.07 9.27734,707.25" /><path
         id="path30"
         style="fill:none;stroke:#f25c19;stroke-width:10;stroke-linecap:butt;stroke-linejoin:miter;stroke-miterlimit:4;stroke-dasharray:none;stroke-opacity:1"
         d="m 9.27734,707.25 -0.99609,13.762 107.96875,7.82 0.996,-13.762 z" /><path
         id="path32"
         style="fill:#f25c19;fill-opacity:1;fill-rule:nonzero;stroke:none"
         d="m 45.1758,673.715 -3.1094,-0.52 c -14.5039,-2.398 -17.5703,-12.343 -16.1172,-21.074 1.7891,-10.808 7.7578,-18.328 20.4805,-16.219 23.6836,3.938 13.0625,51.446 45.1797,56.778 18.9496,3.144 31.2456,-8.653 34.2146,-26.563 3.246,-19.543 -4.41,-32.058 -26.3123,-34.785 l -2.3594,14.207 c 11.7147,1.789 18.8007,6.77 16.6607,19.649 -1.352,8.136 -6.872,15.734 -18.4107,13.82 -23.539,-3.906 -12.1757,-51.301 -46.0664,-56.926 -22.5,-3.73 -32.3281,10.606 -35.2539,28.227 -5.52731,31.472 18.5938,35.476 28.8594,36.875 l 2.2344,-13.469" /><path
         id="path34"
         style="fill:none;stroke:#f25c19;stroke-width:10;stroke-linecap:butt;stroke-linejoin:miter;stroke-miterlimit:4;stroke-dasharray:none;stroke-opacity:1"
         d="m 45.1758,673.715 -3.1094,-0.52 c -14.5039,-2.398 -17.5703,-12.343 -16.1172,-21.074 1.7891,-10.808 7.7578,-18.328 20.4805,-16.219 23.6836,3.938 13.0625,51.446 45.1797,56.778 18.9496,3.144 31.2456,-8.653 34.2146,-26.563 3.246,-19.543 -4.41,-32.058 -26.3123,-34.785 l -2.3594,14.207 c 11.7147,1.789 18.8007,6.77 16.6607,19.649 -1.352,8.136 -6.872,15.734 -18.4107,13.82 -23.539,-3.906 -12.1757,-51.301 -46.0664,-56.926 -22.5,-3.73 -32.3281,10.606 -35.2539,28.227 -5.52731,31.472 18.5938,35.476 28.8594,36.875 z" /><path
         id="path36"
         style="fill:#f25c19;fill-opacity:1;fill-rule:nonzero;stroke:none"
         d="m 80.5898,552.477 34.9962,10.679 c 21.66,6.614 17.82,21.75 16.555,25.91 -1.274,4.161 -6.543,18.86 -28.2,12.247 L 68.9414,590.629 C 46.2813,583.703 42.5547,575.355 46.3672,562.875 50.1758,550.402 57.9297,545.551 80.5898,552.477 Z m -15.1875,51.804 33.9883,10.379 c 20.6524,6.313 37.0934,-0.281 43.7934,-22.226 6.699,-21.942 -3.258,-36.582 -23.911,-42.887 L 85.2773,539.164 c -28.6835,-8.762 -43.2539,-1.601 -49.9531,20.344 -6.7031,21.941 1.3906,36.012 30.0781,44.773" /><path
         id="path38"
         style="fill:none;stroke:#f25c19;stroke-width:10;stroke-linecap:butt;stroke-linejoin:miter;stroke-miterlimit:4;stroke-dasharray:none;stroke-opacity:1"
         d="m 80.5898,552.477 34.9962,10.679 c 21.66,6.614 17.82,21.75 16.555,25.91 -1.274,4.161 -6.543,18.86 -28.2,12.247 L 68.9414,590.629 C 46.2813,583.703 42.5547,575.355 46.3672,562.875 50.1758,550.402 57.9297,545.551 80.5898,552.477 Z m -15.1875,51.804 33.9883,10.379 c 20.6524,6.313 37.0934,-0.281 43.7934,-22.226 6.699,-21.942 -3.258,-36.582 -23.911,-42.887 L 85.2773,539.164 c -28.6835,-8.762 -43.2539,-1.601 -49.9531,20.344 -6.7031,21.941 1.3906,36.012 30.0781,44.773 z" /><path
         id="path40"
         style="fill:#f25c19;fill-opacity:1;fill-rule:nonzero;stroke:none"
         d="m 69.8203,473.332 10.7149,5.402 c 51.7378,-8.043 62.7538,-12.574 78.8278,-4.48 7.371,3.711 10.504,9.82 6.528,17.723 -4.657,9.25 -13.164,7.136 -20.602,3.23 l -6.34,12.59 c 14.867,8.828 28.828,6.125 36.781,-9.688 8.434,-16.75 4.844,-28.629 -11.902,-37.058 -20.765,-10.461 -32.992,-3.52 -76.6796,4.551 l 18.5426,-36.84 -10.7144,-5.403 -25.1563,49.973" /><path
         id="path42"
         style="fill:none;stroke:#f25c19;stroke-width:10;stroke-linecap:butt;stroke-linejoin:miter;stroke-miterlimit:4;stroke-dasharray:none;stroke-opacity:1"
         d="m 69.8203,473.332 10.7149,5.402 c 51.7378,-8.043 62.7538,-12.574 78.8278,-4.48 7.371,3.711 10.504,9.82 6.528,17.723 -4.657,9.25 -13.164,7.136 -20.602,3.23 l -6.34,12.59 c 14.867,8.828 28.828,6.125 36.781,-9.688 8.434,-16.75 4.844,-28.629 -11.902,-37.058 -20.765,-10.461 -32.992,-3.52 -76.6796,4.551 l 18.5426,-36.84 -10.7144,-5.403 z" /><path
         id="path44"
         style="fill:#f25c19;fill-opacity:1;fill-rule:nonzero;stroke:none"
         d="m 108.277,400.66 10.02,6.61 c 52.34,-1.989 63.805,-5.219 78.836,4.691 6.89,4.539 9.297,10.98 4.43,18.367 -5.7,8.652 -13.911,5.563 -20.844,0.82 l -7.758,11.774 c 13.742,10.5 27.93,9.43 37.668,-5.363 10.316,-15.649 8.133,-27.879 -7.527,-38.2 -19.418,-12.789 -32.375,-7.32 -76.715,-4.379 l 22.707,-34.441 -10.028,-6.598 -30.789,46.719" /><path
         id="path46"
         style="fill:none;stroke:#f25c19;stroke-width:10;stroke-linecap:butt;stroke-linejoin:miter;stroke-miterlimit:4;stroke-dasharray:none;stroke-opacity:1"
         d="m 108.277,400.66 10.02,6.61 c 52.34,-1.989 63.805,-5.219 78.836,4.691 6.89,4.539 9.297,10.98 4.43,18.367 -5.7,8.652 -13.911,5.563 -20.844,0.82 l -7.758,11.774 c 13.742,10.5 27.93,9.43 37.668,-5.363 10.316,-15.649 8.133,-27.879 -7.527,-38.2 -19.418,-12.789 -32.375,-7.32 -76.715,-4.379 l 22.707,-34.441 -10.028,-6.598 z" /><path
         id="path48"
         style="fill:#f25c19;fill-opacity:1;fill-rule:nonzero;stroke:none"
         d="m 200.211,355.129 c -13.441,-11.277 -31.008,-24.66 -21.172,-36.379 9.84,-11.711 26.055,3.27 39.496,14.551 21.485,18.027 34.606,29.238 25.535,40.039 -9.058,10.789 -22.371,-0.168 -43.859,-18.211 z m 29.262,-30.66 c -20.797,-17.457 -41.149,-34.739 -59.278,-13.141 -18.129,21.602 2.418,38.652 23.211,56.113 21.489,18.028 41.196,35.149 59.516,13.329 18.324,-21.84 -1.961,-38.282 -23.449,-56.301" /><path
         id="path50"
         style="fill:none;stroke:#f25c19;stroke-width:10;stroke-linecap:butt;stroke-linejoin:miter;stroke-miterlimit:4;stroke-dasharray:none;stroke-opacity:1"
         d="m 200.211,355.129 c -13.441,-11.277 -31.008,-24.66 -21.172,-36.379 9.84,-11.711 26.055,3.27 39.496,14.551 21.485,18.027 34.606,29.238 25.535,40.039 -9.058,10.789 -22.371,-0.168 -43.859,-18.211 z m 29.262,-30.66 c -20.797,-17.457 -41.149,-34.739 -59.278,-13.141 -18.129,21.602 2.418,38.652 23.211,56.113 21.489,18.028 41.196,35.149 59.516,13.329 18.324,-21.84 -1.961,-38.282 -23.449,-56.301 z" /><path
         id="path52"
         style="fill:#f25c19;fill-opacity:1;fill-rule:nonzero;stroke:none"
         d="m 251.41,298.5 c -12.031,-12.77 -27.914,-28.09 -16.785,-38.57 11.129,-10.489 25.48,6.269 37.516,19.031 19.23,20.398 30.949,33.051 20.695,42.711 -10.258,9.668 -22.191,-2.774 -41.426,-23.172 z m 32.617,-27.039 c -18.613,-19.75 -36.808,-39.27 -57.324,-19.941 -20.508,19.332 -2.094,38.652 16.524,58.41 19.23,20.398 36.796,39.679 57.527,20.14 20.73,-19.539 2.508,-38.211 -16.727,-58.609" /><path
         id="path54"
         style="fill:none;stroke:#f25c19;stroke-width:10;stroke-linecap:butt;stroke-linejoin:miter;stroke-miterlimit:4;stroke-dasharray:none;stroke-opacity:1"
         d="m 251.41,298.5 c -12.031,-12.77 -27.914,-28.09 -16.785,-38.57 11.129,-10.489 25.48,6.269 37.516,19.031 19.23,20.398 30.949,33.051 20.695,42.711 -10.258,9.668 -22.191,-2.774 -41.426,-23.172 z m 32.617,-27.039 c -18.613,-19.75 -36.808,-39.27 -57.324,-19.941 -20.508,19.332 -2.094,38.652 16.524,58.41 19.23,20.398 36.796,39.679 57.527,20.14 20.73,-19.539 2.508,-38.211 -16.727,-58.609 z" /><path
         id="path56"
         style="fill:#f25c19;fill-opacity:1;fill-rule:nonzero;stroke:none"
         d="m 308.707,248.27 c -10.48,-14.079 -24.488,-31.122 -12.223,-40.258 12.266,-9.133 24.59,9.168 35.071,23.226 16.746,22.492 26.925,36.41 15.629,44.832 -11.305,8.418 -21.723,-5.32 -38.477,-27.8 z m 35.523,-23.098 c -16.21,-21.762 -32.039,-43.25 -54.64,-26.422 -22.61,16.84 -6.543,38.16 9.668,59.922 16.75,22.488 31.972,43.68 54.82,26.656 22.848,-17.019 6.899,-37.668 -9.848,-60.156" /><path
         id="path58"
         style="fill:none;stroke:#f25c19;stroke-width:10;stroke-linecap:butt;stroke-linejoin:miter;stroke-miterlimit:4;stroke-dasharray:none;stroke-opacity:1"
         d="m 308.707,248.27 c -10.48,-14.079 -24.488,-31.122 -12.223,-40.258 12.266,-9.133 24.59,9.168 35.071,23.226 16.746,22.492 26.925,36.41 15.629,44.832 -11.305,8.418 -21.723,-5.32 -38.477,-27.8 z m 35.523,-23.098 c -16.21,-21.762 -32.039,-43.25 -54.64,-26.422 -22.61,16.84 -6.543,38.16 9.668,59.922 16.75,22.488 31.972,43.68 54.82,26.656 22.848,-17.019 6.899,-37.668 -9.848,-60.156 z" /><path
         id="path60"
         style="fill:#ffffff;fill-opacity:1;fill-rule:nonzero;stroke:none"
         d="m 260.801,1190.88 1.512,-1.46 c 7.082,-6.78 13.617,-4.46 17.699,-0.2 5.054,5.26 6.699,11.46 0.496,17.42 -11.555,11.08 -32.695,-13.55 -48.36,1.48 -9.238,8.86 -7.839,20.15 0.54,28.88 9.148,9.53 18.894,10.43 29.082,-0.18 l -6.653,-6.93 c -5.625,5.54 -11.113,7.34 -17.137,1.06 -3.808,-3.97 -5.675,-9.95 -0.042,-15.35 11.476,-11.01 32.257,13.96 48.792,-1.9 10.965,-10.53 7.235,-21.5 -1.015,-30.09 -14.61,-15.52 -26.379,-4.23 -31.211,0.7 l 6.297,6.57" /><path
         id="path62"
         style="fill:none;stroke:#ffffff;stroke-width:2;stroke-linecap:butt;stroke-linejoin:miter;stroke-miterlimit:3.86369991;stroke-dasharray:none;stroke-opacity:1"
         d="m 260.801,1190.88 1.512,-1.46 c 7.082,-6.78 13.617,-4.46 17.699,-0.2 5.054,5.26 6.699,11.46 0.496,17.42 -11.555,11.08 -32.695,-13.55 -48.36,1.48 -9.238,8.86 -7.839,20.15 0.54,28.88 9.148,9.53 18.894,10.43 29.082,-0.18 l -6.653,-6.93 c -5.625,5.54 -11.113,7.34 -17.137,1.06 -3.808,-3.97 -5.675,-9.95 -0.042,-15.35 11.476,-11.01 32.257,13.96 48.792,-1.9 10.965,-10.53 7.235,-21.5 -1.015,-30.09 -14.61,-15.52 -26.379,-4.23 -31.211,0.7 z" /><path
         id="path64"
         style="fill:#ffffff;fill-opacity:1;fill-rule:nonzero;stroke:none"
         d="m 287.102,1285.68 7.031,6.1 14.441,-46.68 18.047,-20.78 -6.953,-6.03 -18.035,20.77 -43.988,21.03 7.785,6.76 33.547,-17.11 -11.875,35.94" /><path
         id="path66"
         style="fill:none;stroke:#ffffff;stroke-width:2;stroke-linecap:butt;stroke-linejoin:miter;stroke-miterlimit:3.86369991;stroke-dasharray:none;stroke-opacity:1"
         d="m 287.102,1285.68 7.031,6.1 14.441,-46.68 18.047,-20.78 -6.953,-6.03 -18.035,20.77 -43.988,21.03 7.785,6.76 33.547,-17.11 z" /><path
         id="path68"
         style="fill:#ffffff;fill-opacity:1;fill-rule:nonzero;stroke:none"
         d="m 341.965,1264.27 1.226,-1.7 c 5.715,-7.96 12.551,-6.86 17.336,-3.42 5.926,4.25 8.672,10.03 3.653,17.02 -9.325,12.98 -34.571,-7.36 -47.227,10.25 -7.461,10.39 -4.031,21.22 5.789,28.27 10.715,7.69 20.449,6.81 28.535,-5.47 l -7.793,-5.6 c -4.531,6.47 -9.589,9.24 -16.648,4.17 -4.465,-3.21 -7.383,-8.75 -2.832,-15.08 9.266,-12.91 34.226,7.84 47.578,-10.74 8.856,-12.34 3.191,-22.44 -6.465,-29.37 -17.179,-12.58 -26.679,0.65 -30.539,6.37 l 7.387,5.3" /><path
         id="path70"
         style="fill:none;stroke:#ffffff;stroke-width:2;stroke-linecap:butt;stroke-linejoin:miter;stroke-miterlimit:3.86369991;stroke-dasharray:none;stroke-opacity:1"
         d="m 341.965,1264.27 1.226,-1.7 c 5.715,-7.96 12.551,-6.86 17.336,-3.42 5.926,4.25 8.672,10.03 3.653,17.02 -9.325,12.98 -34.571,-7.36 -47.227,10.25 -7.461,10.39 -4.031,21.22 5.789,28.27 10.715,7.69 20.449,6.81 28.535,-5.47 l -7.793,-5.6 c -4.531,6.47 -9.589,9.24 -16.648,4.17 -4.465,-3.21 -7.383,-8.75 -2.832,-15.08 9.266,-12.91 34.226,7.84 47.578,-10.74 8.856,-12.34 3.191,-22.44 -6.465,-29.37 -17.179,-12.58 -26.679,0.65 -30.539,6.37 z" /><path
         id="path72"
         style="fill:#ffffff;fill-opacity:1;fill-rule:nonzero;stroke:none"
         d="m 392.93,1357.21 4.043,-6.91 -16.414,-9.59 32.429,-55.45 -7.949,-4.65 -32.422,55.45 -16.418,-9.6 -4.031,6.91 40.762,23.84" /><path
         id="path74"
         style="fill:none;stroke:#ffffff;stroke-width:2;stroke-linecap:butt;stroke-linejoin:miter;stroke-miterlimit:3.86369991;stroke-dasharray:none;stroke-opacity:1"
         d="m 392.93,1357.21 4.043,-6.91 -16.414,-9.59 32.429,-55.45 -7.949,-4.65 -32.422,55.45 -16.418,-9.6 -4.031,6.91 z" /><path
         id="path76"
         style="fill:#ffffff;fill-opacity:1;fill-rule:nonzero;stroke:none"
         d="m 438.02,1299.11 -30.852,65.32 33.66,15.89 3.418,-7.23 -25.34,-11.96 9.91,-20.99 23.528,11.1 3.418,-7.24 -23.528,-11.11 10.688,-22.62 25.879,12.22 3.418,-7.24 -34.199,-16.14" /><path
         id="path78"
         style="fill:none;stroke:#ffffff;stroke-width:2;stroke-linecap:butt;stroke-linejoin:miter;stroke-miterlimit:3.86369991;stroke-dasharray:none;stroke-opacity:1"
         d="m 438.02,1299.11 -30.852,65.32 33.66,15.89 3.418,-7.23 -25.34,-11.96 9.91,-20.99 23.528,11.1 3.418,-7.24 -23.528,-11.11 10.688,-22.62 25.879,12.22 3.418,-7.24 z" /><path
         id="path80"
         style="fill:#ffffff;fill-opacity:1;fill-rule:nonzero;stroke:none"
         d="m 491.316,1323.15 -8.164,-2.72 -22.918,68.52 14.153,4.73 36.504,-51.74 0.183,0.06 -1.765,63.36 14.421,4.82 22.918,-68.53 -8.726,-2.92 -20.383,60.94 -0.184,-0.07 1.2,-67.34 -8.262,-2.76 -39.16,54.65 -0.195,-0.06 20.378,-60.94" /><path
         id="path82"
         style="fill:none;stroke:#ffffff;stroke-width:2;stroke-linecap:butt;stroke-linejoin:miter;stroke-miterlimit:3.86369991;stroke-dasharray:none;stroke-opacity:1"
         d="m 491.316,1323.15 -8.164,-2.72 -22.918,68.52 14.153,4.73 36.504,-51.74 0.183,0.06 -1.765,63.36 14.421,4.82 22.918,-68.53 -8.726,-2.92 -20.383,60.94 -0.184,-0.07 1.2,-67.34 -8.262,-2.76 -39.16,54.65 -0.195,-0.06 z" /><path
         id="path84"
         style="fill:#ffffff;fill-opacity:1;fill-rule:nonzero;stroke:none"
         d="m 607.449,1406.5 c -0.562,4.06 -1.511,8.06 -3.758,10.03 -2.246,1.96 -6.621,2.06 -8.496,1.76 -7.5,-1.22 -9.726,-6.24 -9.863,-7.27 -0.164,-0.84 -1.648,-2.91 0.332,-15.15 l 3.098,-19.05 c 2.832,-17.48 8.894,-18.62 15.906,-17.48 2.766,0.45 10.996,2.79 8.828,16.73 l 9.387,1.52 c 4.043,-22.45 -11.848,-25.02 -16.488,-25.78 -8.883,-1.44 -22.606,-3.06 -27.098,24.58 l -3.262,20.14 c -3.269,20.14 4.688,27.31 18.699,29.59 14.121,2.29 20.735,-4.14 22.09,-18.1 l -9.375,-1.52" /><path
         id="path86"
         style="fill:none;stroke:#ffffff;stroke-width:2;stroke-linecap:butt;stroke-linejoin:miter;stroke-miterlimit:3.86369991;stroke-dasharray:none;stroke-opacity:1"
         d="m 607.449,1406.5 c -0.562,4.06 -1.511,8.06 -3.758,10.03 -2.246,1.96 -6.621,2.06 -8.496,1.76 -7.5,-1.22 -9.726,-6.24 -9.863,-7.27 -0.164,-0.84 -1.648,-2.91 0.332,-15.15 l 3.098,-19.05 c 2.832,-17.48 8.894,-18.62 15.906,-17.48 2.766,0.45 10.996,2.79 8.828,16.73 l 9.387,1.52 c 4.043,-22.45 -11.848,-25.02 -16.488,-25.78 -8.883,-1.44 -22.606,-3.06 -27.098,24.58 l -3.262,20.14 c -3.269,20.14 4.688,27.31 18.699,29.59 14.121,2.29 20.735,-4.14 22.09,-18.1 z" /><path
         id="path88"
         style="fill:#ffffff;fill-opacity:1;fill-rule:nonzero;stroke:none"
         d="m 639.434,1357.8 -5.071,72.05 37.121,2.61 0.567,-7.98 -27.949,-1.97 1.628,-23.15 25.95,1.82 0.566,-7.98 -25.945,-1.82 1.746,-24.95 28.547,2.01 0.554,-7.99 -37.714,-2.65" /><path
         id="path90"
         style="fill:none;stroke:#ffffff;stroke-width:2;stroke-linecap:butt;stroke-linejoin:miter;stroke-miterlimit:3.86369991;stroke-dasharray:none;stroke-opacity:1"
         d="m 639.434,1357.8 -5.071,72.05 37.121,2.61 0.567,-7.98 -27.949,-1.97 1.628,-23.15 25.95,1.82 0.566,-7.98 -25.945,-1.82 1.746,-24.95 28.547,2.01 0.554,-7.99 z" /><path
         id="path92"
         style="fill:#ffffff;fill-opacity:1;fill-rule:nonzero;stroke:none"
         d="m 698.801,1401.71 13.781,-0.16 c 6.602,-0.09 9.863,5.57 9.941,11.87 0.059,5.2 -2.46,11.03 -9.55,11.11 l -13.903,0.17 z m -0.102,-7.99 -0.406,-33.18 -9.191,0.11 0.878,72.16 24.887,-0.31 c 12.793,-0.15 17.168,-9.2 17.071,-18.2 -0.098,-8.49 -4.883,-14.93 -13.399,-16.33 v -0.19 c 8.281,-1.4 11.25,-4.24 11.563,-18.74 0.058,-3.1 0.918,-14.4 2.265,-18.92 l -9.59,0.12 c -2.539,5.03 -1.816,14.41 -2.5,24.02 -0.605,8.8 -7.695,9.29 -10.781,9.33 l -10.797,0.13" /><path
         id="path94"
         style="fill:none;stroke:#ffffff;stroke-width:2;stroke-linecap:butt;stroke-linejoin:miter;stroke-miterlimit:3.86369991;stroke-dasharray:none;stroke-opacity:1"
         d="m 698.801,1401.71 13.781,-0.16 c 6.602,-0.09 9.863,5.57 9.941,11.87 0.059,5.2 -2.46,11.03 -9.55,11.11 l -13.903,0.17 z m -0.102,-7.99 -0.406,-33.18 -9.191,0.11 0.878,72.16 24.887,-0.31 c 12.793,-0.15 17.168,-9.2 17.071,-18.2 -0.098,-8.49 -4.883,-14.93 -13.399,-16.33 v -0.19 c 8.281,-1.4 11.25,-4.24 11.563,-18.74 0.058,-3.1 0.918,-14.4 2.265,-18.92 l -9.59,0.12 c -2.539,5.03 -1.816,14.41 -2.5,24.02 -0.605,8.8 -7.695,9.29 -10.781,9.33 z" /><path
         id="path96"
         style="fill:#ffffff;fill-opacity:1;fill-rule:nonzero;stroke:none"
         d="m 791.313,1427.84 -0.665,-7.97 -18.925,1.59 -5.391,-63.97 -9.18,0.77 5.391,63.97 -18.926,1.6 0.664,7.97 47.032,-3.96" /><path
         id="path98"
         style="fill:none;stroke:#ffffff;stroke-width:2;stroke-linecap:butt;stroke-linejoin:miter;stroke-miterlimit:3.86369991;stroke-dasharray:none;stroke-opacity:1"
         d="m 791.313,1427.84 -0.665,-7.97 -18.925,1.59 -5.391,-63.97 -9.18,0.77 5.391,63.97 -18.926,1.6 0.664,7.97 z" /><path
         id="path100"
         style="fill:#ffffff;fill-opacity:1;fill-rule:nonzero;stroke:none"
         d="m 805.16,1352.86 -9.101,1.3 10.136,71.5 9.102,-1.3 -10.137,-71.5" /><path
         id="path102"
         style="fill:none;stroke:#ffffff;stroke-width:2;stroke-linecap:butt;stroke-linejoin:miter;stroke-miterlimit:3.86369991;stroke-dasharray:none;stroke-opacity:1"
         d="m 805.16,1352.86 -9.101,1.3 10.136,71.5 9.102,-1.3 z" /><path
         id="path104"
         style="fill:#ffffff;fill-opacity:1;fill-rule:nonzero;stroke:none"
         d="m 821.41,1350.4 14.102,70.84 35.117,-6.99 -1.563,-7.85 -26.093,5.19 -4.532,-22.76 24.727,-4.92 -1.563,-7.85 -24.726,4.92 -6.445,-32.37 -9.024,1.79" /><path
         id="path106"
         style="fill:none;stroke:#ffffff;stroke-width:2;stroke-linecap:butt;stroke-linejoin:miter;stroke-miterlimit:3.86369991;stroke-dasharray:none;stroke-opacity:1"
         d="m 821.41,1350.4 14.102,70.84 35.117,-6.99 -1.563,-7.85 -26.093,5.19 -4.532,-22.76 24.727,-4.92 -1.563,-7.85 -24.726,4.92 -6.445,-32.37 z" /><path
         id="path108"
         style="fill:#ffffff;fill-opacity:1;fill-rule:nonzero;stroke:none"
         d="m 875.746,1338.22 -8.906,2.33 18.281,69.85 8.906,-2.33 -18.281,-69.85" /><path
         id="path110"
         style="fill:none;stroke:#ffffff;stroke-width:2;stroke-linecap:butt;stroke-linejoin:miter;stroke-miterlimit:3.86369991;stroke-dasharray:none;stroke-opacity:1"
         d="m 875.746,1338.22 -8.906,2.33 18.281,69.85 8.906,-2.33 z" /><path
         id="path112"
         style="fill:#ffffff;fill-opacity:1;fill-rule:nonzero;stroke:none"
         d="m 939.516,1373.1 c 1.406,3.85 2.441,7.83 1.386,10.62 -1.054,2.79 -4.882,4.94 -6.679,5.55 -7.207,2.44 -11.524,-0.95 -12.129,-1.8 -0.547,-0.66 -2.832,-1.79 -6.817,-13.54 l -6.211,-18.29 c -5.703,-16.76 -0.878,-20.62 5.84,-22.91 2.657,-0.9 11.035,-2.69 15.664,10.64 l 9.004,-3.06 c -6.972,-21.73 -22.226,-16.55 -26.679,-15.04 -8.516,2.9 -21.407,7.91 -12.383,34.44 l 6.562,19.34 c 6.563,19.32 16.953,21.93 30.41,17.35 13.555,-4.6 16.387,-13.38 11.036,-26.36 l -9.004,3.06" /><path
         id="path114"
         style="fill:none;stroke:#ffffff;stroke-width:2;stroke-linecap:butt;stroke-linejoin:miter;stroke-miterlimit:3.86369991;stroke-dasharray:none;stroke-opacity:1"
         d="m 939.516,1373.1 c 1.406,3.85 2.441,7.83 1.386,10.62 -1.054,2.79 -4.882,4.94 -6.679,5.55 -7.207,2.44 -11.524,-0.95 -12.129,-1.8 -0.547,-0.66 -2.832,-1.79 -6.817,-13.54 l -6.211,-18.29 c -5.703,-16.76 -0.878,-20.62 5.84,-22.91 2.657,-0.9 11.035,-2.69 15.664,10.64 l 9.004,-3.06 c -6.972,-21.73 -22.226,-16.55 -26.679,-15.04 -8.516,2.9 -21.407,7.91 -12.383,34.44 l 6.562,19.34 c 6.563,19.32 16.953,21.93 30.41,17.35 13.555,-4.6 16.387,-13.38 11.036,-26.36 z" /><path
         id="path116"
         style="fill:#ffffff;fill-opacity:1;fill-rule:nonzero;stroke:none"
         d="m 991.664,1363.86 -0.176,0.09 -26.406,-30.22 20.957,-9.69 z m -1.504,10.07 10.63,-4.91 -8.97,-75.41 -9.355,4.32 2.5,17.8 -25.332,11.7 -12.129,-13.34 -8.438,3.9 51.094,55.94" /><path
         id="path118"
         style="fill:none;stroke:#ffffff;stroke-width:2;stroke-linecap:butt;stroke-linejoin:miter;stroke-miterlimit:3.86369991;stroke-dasharray:none;stroke-opacity:1"
         d="m 991.664,1363.86 -0.176,0.09 -26.406,-30.22 20.957,-9.69 z m -1.504,10.07 10.63,-4.91 -8.97,-75.41 -9.355,4.32 2.5,17.8 -25.332,11.7 -12.129,-13.34 -8.438,3.9 z" /><path
         id="path120"
         style="fill:#ffffff;fill-opacity:1;fill-rule:nonzero;stroke:none"
         d="m 1064.5,1334.37 -4.01,-6.92 -16.44,9.51 -32.13,-55.55 -7.97,4.61 32.15,55.54 -16.45,9.51 4.01,6.92 40.84,-23.62" /><path
         id="path122"
         style="fill:none;stroke:#ffffff;stroke-width:2;stroke-linecap:butt;stroke-linejoin:miter;stroke-miterlimit:3.86369991;stroke-dasharray:none;stroke-opacity:1"
         d="m 1064.5,1334.37 -4.01,-6.92 -16.44,9.51 -32.13,-55.55 -7.97,4.61 32.15,55.54 -16.45,9.51 4.01,6.92 z" /><path
         id="path124"
         style="fill:#ffffff;fill-opacity:1;fill-rule:nonzero;stroke:none"
         d="m 1044.87,1260.25 -7.6,5.19 40.76,59.6 7.6,-5.19 -40.76,-59.6" /><path
         id="path126"
         style="fill:none;stroke:#ffffff;stroke-width:2;stroke-linecap:butt;stroke-linejoin:miter;stroke-miterlimit:3.86369991;stroke-dasharray:none;stroke-opacity:1"
         d="m 1044.87,1260.25 -7.6,5.19 40.76,59.6 7.6,-5.19 z" /><path
         id="path128"
         style="fill:#ffffff;fill-opacity:1;fill-rule:nonzero;stroke:none"
         d="m 1103.23,1248 15.45,18.88 c 9.55,11.68 1.83,18.65 -0.41,20.49 -2.25,1.83 -10.61,8.03 -20.18,-3.64 l -15.45,-18.88 c -10,-12.23 -8.98,-18.24 -2.24,-23.74 6.71,-5.51 12.81,-5.33 22.83,6.89 z m -27.6,23.11 15,18.33 c 9.12,11.15 20.66,13.58 32.5,3.88 11.84,-9.68 11.74,-21.48 2.62,-32.63 l -15,-18.33 c -12.68,-15.47 -23.4,-16.9 -35.24,-7.21 -11.83,9.69 -12.56,20.48 0.12,35.96" /><path
         id="path130"
         style="fill:none;stroke:#ffffff;stroke-width:2;stroke-linecap:butt;stroke-linejoin:miter;stroke-miterlimit:3.86369991;stroke-dasharray:none;stroke-opacity:1"
         d="m 1103.23,1248 15.45,18.88 c 9.55,11.68 1.83,18.65 -0.41,20.49 -2.25,1.83 -10.61,8.03 -20.18,-3.64 l -15.45,-18.88 c -10,-12.23 -8.98,-18.24 -2.24,-23.74 6.71,-5.51 12.81,-5.33 22.83,6.89 z m -27.6,23.11 15,18.33 c 9.12,11.15 20.66,13.58 32.5,3.88 11.84,-9.68 11.74,-21.48 2.62,-32.63 l -15,-18.33 c -12.68,-15.47 -23.4,-16.9 -35.24,-7.21 -11.83,9.69 -12.56,20.48 0.12,35.96 z" /><path
         id="path132"
         style="fill:#ffffff;fill-opacity:1;fill-rule:nonzero;stroke:none"
         d="m 1192.62,1224.92 -52.22,-49.91 -8.72,9.11 25.59,63.89 -0.16,0.14 -45.27,-43.27 -5.66,5.93 52.22,49.91 8.99,-9.41 -25.28,-63.04 0.14,-0.14 44.69,42.71 5.68,-5.92" /><path
         id="path134"
         style="fill:none;stroke:#ffffff;stroke-width:2;stroke-linecap:butt;stroke-linejoin:miter;stroke-miterlimit:3.86369991;stroke-dasharray:none;stroke-opacity:1"
         d="m 1192.62,1224.92 -52.22,-49.91 -8.72,9.11 25.59,63.89 -0.16,0.14 -45.27,-43.27 -5.66,5.93 52.22,49.91 8.99,-9.41 -25.28,-63.04 0.14,-0.14 44.69,42.71 z" /></g></g></svg>