<?xml version="1.0" encoding="utf-8"?>
<!-- Generator: Adobe Illustrator 25.2.0, SVG Export Plug-In . SVG Version: 6.00 Build 0)  -->
<svg version="1.1" id="Layer_1" xmlns="http://www.w3.org/2000/svg" xmlns:xlink="http://www.w3.org/1999/xlink" x="0px" y="0px"
	 viewBox="0 0 512 512" style="enable-background:new 0 0 512 512;" xml:space="preserve">
<style type="text/css">
	.st0{fill:#FF0000;}
</style>
<g>
	<g>
		<path class="st0" d="M378.5,289.5V126.2c0-0.8-0.1-1.6-0.4-2.3c-0.1-0.4-0.2-0.8-0.4-1.2c-0.4-1-1-1.9-1.8-2.7l0,0l-65.5-64.5l0,0
			c-0.4-0.4-0.9-0.8-1.4-1.1c-0.9-0.5-1.8-1-2.8-1.2h-0.4c-0.6-0.1-1.2-0.1-1.8,0H84.8c-4.8,0-8.8,3.7-9,8.5v388.1c0,5,4,9,9,9
			h284.7c5,0,9-4,9-9v-28.1c36.5-4.9,62.1-38.5,57.1-75C431.7,316.9,408.3,293.5,378.5,289.5z M312.9,83.3l34.4,33.9h-34.4V83.3z
			 M360.5,440.8H93.8v-370h201v55.5c0,5,4,9,9,9h56.6v154.3c-36.5,4.9-62.1,38.5-57.1,75c4,29.7,27.4,53.1,57.1,57.1v19.1H360.5z
			 M378.5,409.6c-6,1-12.1,1-18.1,0c-29.8-4.9-50-33-45.1-62.8c3.8-23.2,22-41.3,45.1-45.1c6-1,12.1-1,18.1,0
			c29.8,5.1,49.8,33.4,44.7,63.2C419.4,387.7,401.4,405.7,378.5,409.6z"/>
		<path class="st0" d="M377.8,122.7c-0.4-1-1-1.9-1.8-2.7C376.8,120.8,377.4,121.7,377.8,122.7z"/>
		<path class="st0" d="M300.2,184.1H136c-3.3,0-6-2.7-6-6s2.7-6,6-6h164.2c3.3,0,6,2.7,6,6C306.2,181.4,303.5,184.1,300.2,184.1z"/>
		<path class="st0" d="M297,229.2H139.3c-3.3,0-6-2.7-6-6s2.7-6,6-6H297c3.3,0,6,2.7,6,6S300.3,229.2,297,229.2z"/>
		<path class="st0" d="M297,268.6H139.3c-3.3,0-6-2.7-6-6s2.7-6,6-6H297c3.3,0,6,2.7,6,6S300.3,268.6,297,268.6z"/>
		<path class="st0" d="M142.3,378.3h-3c-3.3,0-6-2.7-6-6s2.7-6,6-6h3c3.3,0,6,2.7,6,6C148.4,375.6,145.7,378.3,142.3,378.3z"/>
		<path class="st0" d="M237.9,366.2h-5.4c-3.3,0-6,2.7-6,6s2.7,6,6,6h5.3c3.3,0,6-2.7,6-6C243.8,368.9,241.1,366.2,237.9,366.2
			L237.9,366.2z M206,366.2h-5.3c-3.3,0-6,2.7-6,6s2.7,6,6,6h5.3c3.3,0,6-2.7,6-6C212,368.9,209.3,366.2,206,366.2z M174.2,366.2
			h-5.3c-3.3,0-6,2.7-6,6s2.7,6,6,6h5.3c3.3,0,6-2.7,6-6C180.2,368.9,177.5,366.2,174.2,366.2z"/>
		<path class="st0" d="M267.4,378.3h-3c-3.3,0-6-2.7-6-6s2.7-6,6-6h3c3.3,0,6,2.7,6,6C273.4,375.6,270.7,378.3,267.4,378.3z"/>
		<path class="st0" d="M197.1,310.6h-57.8c-3.3,0-6-2.7-6-6s2.7-6,6-6h57.8c3.3,0,6,2.7,6,6S200.4,310.6,197.1,310.6z"/>
		<path class="st0" d="M400.4,327.4c-2.7-2-6.5-1.4-8.4,1.3l0,0l-13.4,18.1l-17.3,23.6l-0.8-0.5L341,356.2c-2.8-1.9-6.6-1.2-8.5,1.6
			c-1.9,2.8-1.2,6.6,1.6,8.5l25,18.1c0.4,0.3,0.9,0.5,1.4,0.7c0.7,0.3,1.4,0.4,2.1,0.4c1.9,0,3.7-0.9,4.9-2.5l11.1-15.1l23.1-31.8
			c2-2.6,1.6-6.4-1.1-8.5C400.5,327.6,400.4,327.5,400.4,327.4z M400.4,327.4c-2.7-2-6.5-1.4-8.4,1.3l0,0l-13.4,18.1l-17.3,23.6
			l-0.8-0.5L341,356.2c-2.8-1.9-6.6-1.2-8.5,1.6c-1.9,2.8-1.2,6.6,1.6,8.5l25,18.1c0.4,0.3,0.9,0.5,1.4,0.7c0.7,0.3,1.4,0.4,2.1,0.4
			c1.9,0,3.7-0.9,4.9-2.5l11.1-15.1l23.1-31.8c2-2.6,1.6-6.4-1.1-8.5C400.5,327.6,400.4,327.5,400.4,327.4z M400.4,327.4
			c-2.7-2-6.5-1.4-8.4,1.3l0,0l-13.4,18.1l-17.3,23.6l-0.8-0.5L341,356.2c-2.8-1.9-6.6-1.2-8.5,1.6c-1.9,2.8-1.2,6.6,1.6,8.5
			l25,18.1c0.4,0.3,0.9,0.5,1.4,0.7c0.7,0.3,1.4,0.4,2.1,0.4c1.9,0,3.7-0.9,4.9-2.5l11.1-15.1l23.1-31.8c2-2.6,1.6-6.4-1.1-8.5
			C400.5,327.6,400.4,327.5,400.4,327.4z M400.4,327.4c-2.7-2-6.5-1.4-8.4,1.3l0,0l-13.4,18.1l-17.3,23.6l-0.8-0.5L341,356.2
			c-2.8-1.9-6.6-1.2-8.5,1.6c-1.9,2.8-1.2,6.6,1.6,8.5l25,18.1c0.4,0.3,0.9,0.5,1.4,0.7c0.7,0.3,1.4,0.4,2.1,0.4
			c1.9,0,3.7-0.9,4.9-2.5l11.1-15.1l23.1-31.8c2-2.6,1.6-6.4-1.1-8.5C400.5,327.6,400.4,327.5,400.4,327.4z"/>
	</g>
</g>
</svg>
