<?xml version="1.0" encoding="utf-8"?>
<!-- Generator: Adobe Illustrator 23.0.1, SVG Export Plug-In . SVG Version: 6.00 Build 0)  -->
<svg version="1.1" id="Layer_1" xmlns="http://www.w3.org/2000/svg" xmlns:xlink="http://www.w3.org/1999/xlink" x="0px" y="0px"
	 viewBox="0 0 17 17" style="enable-background:new 0 0 17 17;" xml:space="preserve">
<style type="text/css">
	.st0{fill:#FF0000;}
</style>
<path class="st0" d="M11.7,5.7H3.6C3.4,5.7,3.2,5.8,3.2,6s0.1,0.3,0.3,0.3h8.2C11.9,6.3,12,6.2,12,6S11.9,5.7,11.7,5.7z M11.7,13.9
	H3.6c-0.2,0-0.3,0.1-0.3,0.3s0.1,0.3,0.3,0.3h8.2c0.2,0,0.3-0.1,0.3-0.3S11.9,13.9,11.7,13.9z M11.7,3.5H3.6c-0.2,0-0.3,0.1-0.3,0.3
	s0.1,0.3,0.3,0.3h8.2c0.2,0,0.3-0.1,0.3-0.3S11.9,3.5,11.7,3.5z M10.9,7.8H3.6C3.4,7.8,3.2,8,3.2,8.2c0,0.2,0.1,0.3,0.3,0.3h7.3
	c0.2,0,0.3-0.1,0.3-0.3C11.2,8,11.1,7.8,10.9,7.8z M10.9,11.9H3.6c-0.2,0-0.3,0.1-0.3,0.3s0.1,0.3,0.3,0.3h7.3
	c0.2,0,0.3-0.1,0.3-0.3S11.1,11.9,10.9,11.9z M10.2,9.8H3.6c-0.2,0-0.3,0.1-0.3,0.3s0.1,0.3,0.3,0.3h6.6c0.2,0,0.3-0.1,0.3-0.3
	C10.6,9.9,10.4,9.8,10.2,9.8z M15.2,12.7v-0.5c0.8-0.4,1.4-1.3,1.4-2.3c0-1.3-1-2.4-2.3-2.5v-7c0-0.2-0.1-0.3-0.3-0.3H1.3
	C1.1,0.1,1,0.2,1,0.4v16.3C1,16.9,1.1,17,1.3,17h13.1c0.2,0,0.3-0.1,0.3-0.3v-0.8l0.4-0.4c0.1-0.1,0.1-0.2,0.1-0.2
	c0-0.1,0-0.2-0.1-0.2l-0.4-0.3v-0.2l0.6-0.5c0.1-0.1,0.1-0.2,0.1-0.2c0-0.1,0-0.2-0.1-0.3l-0.4-0.4l0.2-0.2
	C15.2,12.9,15.2,12.8,15.2,12.7z M16,10c0,0.9-0.6,1.6-1.4,1.8c-0.4,0.1-0.9,0.1-1.3-0.1c-0.3-0.2-0.6-0.4-0.8-0.8
	c-0.2-0.4-0.3-0.8-0.2-1.3c0.1-0.4,0.3-0.8,0.6-1c0.3-0.3,0.7-0.5,1.1-0.5c0.1,0,0.1,0,0.2,0C15.2,8.1,16,8.9,16,10z M1.6,16.4V0.7
	h12.1v6.7c-0.1,0-0.2,0-0.3,0.1c-0.4,0.1-0.8,0.3-1.2,0.7s-0.6,0.9-0.7,1.4c0,0.3,0,0.5,0,0.8c0.1,0.8,0.6,1.5,1.4,1.9v3.8
	c0,0.1,0,0.1,0,0.2l0.1,0.2H1.6V16.4z M14.2,14.1c-0.1,0.1-0.1,0.2-0.1,0.3v0.5c0,0.1,0,0.2,0.1,0.2l0.2,0.2l-0.2,0.2
	c-0.1,0.1-0.1,0.1-0.1,0.2v0.6h-0.2l-0.1-0.1L13.6,16v-3.5c0.1,0,0.2,0,0.4,0s0.4,0,0.6,0v0.1l-0.4,0.3c-0.1,0.1-0.1,0.2-0.1,0.2
	c0,0.1,0,0.2,0.1,0.2l0.4,0.4L14.2,14.1z M13.2,9.5c0,0.5,0.4,1,1,1s1-0.4,1-1c0-0.5-0.4-1-1-1S13.2,8.9,13.2,9.5z M14.2,9.2
	c0.2,0,0.3,0.1,0.3,0.3s-0.1,0.3-0.3,0.3s-0.3-0.1-0.3-0.3C13.8,9.3,14,9.2,14.2,9.2z"/>
</svg>
