<?xml version="1.0" encoding="utf-8"?>
<!-- Generator: Adobe Illustrator 17.1.0, SVG Export Plug-In . SVG Version: 6.00 Build 0)  -->
<!DOCTYPE svg PUBLIC "-//W3C//DTD SVG 1.1//EN" "http://www.w3.org/Graphics/SVG/1.1/DTD/svg11.dtd">
<svg version="1.1" id="Layer_1" xmlns="http://www.w3.org/2000/svg" xmlns:xlink="http://www.w3.org/1999/xlink" x="0px" y="0px"
	 viewBox="0 0 8.1 15.3" enable-background="new 0 0 8.1 15.3" xml:space="preserve" width='9' height='15'>
<g id="Фигура_2">
	<g>
		<rect x="-1037.2" y="2468" fill-rule="evenodd" clip-rule="evenodd" fill="#395898" width="1345" height="1"/>
	</g>
</g>
<g id="Forma_1_копия_10">
	<g>
		<path fill-rule="evenodd" clip-rule="evenodd" fill="#395898" d="M7.8,0L5.8,0C3.7,0,2.3,1.5,2.3,3.8v1.7h-2C0.1,5.5,0,5.7,0,5.8
			v2.5c0,0.2,0.1,0.3,0.3,0.3h2V15c0,0.2,0.1,0.3,0.3,0.3h2.5c0.2,0,0.3-0.1,0.3-0.3V8.7h2.3C7.9,8.7,8,8.5,8,8.3l0-2.5
			c0-0.1,0-0.2-0.1-0.2C7.8,5.5,7.8,5.5,7.7,5.5H5.4V4C5.4,3.3,5.6,3,6.5,3l1.3,0C8,3,8.1,2.8,8.1,2.7V0.3C8.1,0.1,8,0,7.8,0z"/>
	</g>
</g>
</svg>
