<svg id="Слой_1" data-name="Слой 1" xmlns="http://www.w3.org/2000/svg" xmlns:xlink="http://www.w3.org/1999/xlink" viewBox="0 0 1868.35 477.97"><defs><style>.cls-1{fill:none;}.cls-2{clip-path:url(#clip-path);}.cls-3{fill:#e4002b;}</style><clipPath id="clip-path" transform="translate(-26.92 -362.5)"><rect class="cls-1" width="1920" height="1200"/></clipPath></defs><title>3</title><g class="cls-2"><path class="cls-3" d="M1794.67,656.55c0-9.92,9.92-12.13,20.67-15.16,6.62-1.65,13.5-3.58,19.29-7.72v17.91c-5.51,9.09-14.88,14.33-27.28,14.33-7.44,0-12.68-3.86-12.68-9.37M1752,610.8c12.68-8.82,36.65-15.43,60.91-15.43,14.06,0,21.77,2.2,21.77,7.72,0,8-11.3,9.65-30.59,13-29.21,5.24-68.35,12.4-68.35,48.51,0,27.28,16.81,42.44,47.13,42.44,21.22,0,37.48-8.27,51.81-24v20.67h60.63v-91.5c0-36.93-29.77-60.35-76.61-60.35-26.46,0-49.06,3.58-66.7,9.92Z" transform="translate(-26.92 -362.5)"/><polygon class="cls-3" points="1535.98 341.18 1598.54 341.18 1598.54 276.41 1635.74 341.18 1709.88 341.18 1654.76 255.47 1710.15 192.35 1643.18 192.35 1598.54 255.47 1598.54 145.5 1535.98 145.5 1535.98 341.18"/><path class="cls-3" d="M1368,703.68h62.83V616c5-12.13,13.23-17.36,25.08-17.36,13.51,0,21.77,10.19,21.77,27v78h63.11V615.49c0-38-24-63.39-60.08-63.39-21.5,0-39.41,8.27-52.09,23.15V554.85H1368Z" transform="translate(-26.92 -362.5)"/><rect class="cls-3" x="1253.49" y="145.5" width="62.83" height="27.56"/><rect class="cls-3" x="1253.49" y="192.35" width="62.83" height="148.82"/><polygon class="cls-3" points="1089.51 341.18 1234.2 341.18 1234.2 297.08 1164.2 297.08 1231.99 235.35 1231.99 192.63 1095.02 192.35 1095.02 236.45 1156.76 236.45 1089.51 297.63 1089.51 341.18"/><path class="cls-3" d="M986.62,703.68h62.83V618.79c5-12.68,14.61-17.64,30-17.64,10.2,0,20.12,1.93,26.73,4.68V553.2a36.83,36.83,0,0,0-9.64-1.1c-20.95,0-37.76,9.92-49.33,27V554.85H986.62Z" transform="translate(-26.92 -362.5)"/><path class="cls-3" d="M851.58,629.27c0-21.22,9.37-33.07,26.18-33.07s26.18,11.85,26.18,33.07-9.37,33.07-26.18,33.07-26.18-11.85-26.18-33.07m26.18,77.16c54.57,0,89.57-30,89.57-77.16,0-48.78-33.35-77.17-89.57-77.17-54.57,0-89.57,30-89.57,77.17,0,48.78,33.35,77.16,89.57,77.16" transform="translate(-26.92 -362.5)"/><polygon class="cls-3" points="597.57 341.18 660.13 341.18 660.13 276.41 697.34 341.18 771.47 341.18 716.36 255.47 771.75 192.35 704.78 192.35 660.13 255.47 660.13 145.5 597.57 145.5 597.57 341.18"/><path class="cls-3" d="M321.6,364.52c-128.32,17-257.28,136.85-288,267.73S81.88,855.44,210.2,838.45s257.28-136.85,288-267.73S449.92,347.53,321.6,364.52M161,538.14c-7.73,0-11.56-6.27-8.55-14s11.72-14,19.45-14h54.3c7.73,0,11.56,6.27,8.55,14s-11.72,14-19.45,14ZM228.94,682c-4.17,10.71-16.24,19.4-27,19.4s-16-8.68-11.84-19.4,16.24-19.4,27-19.4,16,8.68,11.84,19.4m78.34-.4c-4.26,10.94-16.58,19.8-27.51,19.8s-16.35-8.87-12.09-19.8,16.58-19.8,27.52-19.8,16.35,8.87,12.09,19.8M347,639.19c-3,7.73-11.72,14-19.45,14H205c-7.73,0-11.56-6.27-8.55-14s11.72-14,19.45-14H338.48c7.73,0,11.56,6.27,8.55,14m25.26-38.35c-3,7.73-11.72,14-19.45,14H202.52c-7.73,0-11.56-6.27-8.55-14s11.72-14,19.45-14H363.75c7.73,0,11.56,6.27,8.55,14m17.62-38.35c-3,7.73-11.72,14-19.45,14H189.72c-7.73,0-11.56-6.27-8.55-14s11.72-14,19.45-14H381.37c7.73,0,11.56,6.27,8.55,14" transform="translate(-26.92 -362.5)"/></g></svg>